<?xml version="1.0" standalone="no"?>
<!DOCTYPE svg PUBLIC "-//W3C//DTD SVG 20010904//EN"
 "http://www.w3.org/TR/2001/REC-SVG-20010904/DTD/svg10.dtd">
<svg version="1.0" xmlns="http://www.w3.org/2000/svg"
 width="2223.000000pt" height="2223.000000pt" viewBox="0 0 2223.000000 2223.000000"
 preserveAspectRatio="xMidYMid meet">
<metadata>
Created by potrace 1.11, written by Peter Selinger 2001-2013
</metadata>
<g transform="translate(0.000000,2223.000000) scale(0.100000,-0.100000)"
fill="#000000" stroke="none">
<path d="M9999 22125 c-2 -1 -101 -6 -219 -9 -300 -9 -375 -12 -725 -31 -109
-6 -232 -14 -300 -20 -27 -2 -90 -7 -140 -10 -49 -3 -106 -8 -125 -10 -19 -2
-72 -7 -117 -10 -45 -3 -90 -7 -100 -9 -10 -2 -54 -7 -98 -11 -93 -7 -130 -12
-240 -26 -165 -21 -200 -25 -325 -45 -52 -8 -111 -17 -130 -20 -80 -12 -442
-87 -535 -110 -55 -14 -109 -28 -120 -30 -11 -2 -78 -20 -150 -39 -71 -20
-137 -37 -146 -40 -153 -35 -763 -248 -938 -327 -24 -10 -66 -28 -93 -39 -152
-60 -637 -295 -822 -398 -117 -66 -324 -186 -345 -201 -23 -16 -31 -4 152
-251 9 -13 52 -72 95 -130 42 -59 85 -117 94 -130 10 -13 47 -64 84 -114 36
-49 90 -124 120 -165 30 -41 134 -183 230 -315 97 -132 225 -307 286 -390 60
-82 117 -161 126 -174 9 -12 26 -35 37 -49 11 -15 59 -81 107 -147 48 -66 130
-178 183 -250 228 -313 642 -878 708 -969 40 -54 108 -147 152 -207 44 -60
115 -158 159 -218 l79 -108 91 51 c473 266 1085 444 1621 470 243 13 677 29
1085 41 135 4 283 9 330 10 47 2 152 4 234 5 166 2 139 -7 291 104 173 128
228 168 298 219 39 29 169 125 287 213 118 88 251 187 295 219 44 33 85 63 90
68 6 4 152 114 325 244 532 398 1128 854 1650 1262 102 79 203 158 225 175 22
17 42 33 45 36 3 3 57 46 120 95 63 49 117 92 120 95 3 3 95 77 205 164 110
88 229 184 265 214 36 29 72 59 80 65 48 38 251 205 350 287 63 52 123 102
134 110 10 8 26 22 35 31 9 8 59 51 111 94 52 44 109 91 125 106 27 24 167
146 255 221 39 34 165 147 248 223 30 28 68 62 85 78 l31 27 -255 0 c-410 1
-1213 12 -1754 25 -104 2 -305 7 -445 10 -140 3 -331 8 -425 10 -93 2 -282 7
-420 10 -137 3 -340 8 -450 11 -226 6 -2221 15 -2226 9z"/>
<path d="M3630 20269 c-79 -59 -212 -162 -280 -216 -8 -6 -46 -38 -85 -70 -38
-32 -78 -65 -89 -73 -10 -8 -23 -19 -30 -25 -6 -5 -31 -28 -56 -49 -269 -234
-610 -569 -821 -807 -136 -153 -243 -279 -306 -359 -6 -8 -29 -35 -49 -60
-150 -181 -509 -694 -649 -928 -80 -133 -94 -156 -101 -172 -4 -8 -17 -31 -29
-50 -40 -65 -163 -295 -238 -445 -93 -187 -157 -326 -221 -480 -25 -60 -51
-118 -56 -127 -6 -10 -10 -23 -10 -28 0 -6 -8 -30 -19 -53 -24 -55 -80 -205
-126 -337 -20 -58 -43 -122 -51 -142 -7 -21 -12 -38 -9 -38 2 0 -2 -15 -10
-33 -22 -53 -151 -505 -160 -562 -2 -11 -17 -78 -34 -150 -16 -71 -32 -143
-35 -160 -3 -16 -14 -75 -25 -130 -11 -55 -23 -120 -26 -145 -4 -25 -9 -52
-10 -60 -1 -8 -6 -35 -10 -60 -4 -25 -9 -52 -10 -60 -1 -8 -6 -42 -10 -75 -4
-32 -8 -67 -10 -77 -2 -9 -7 -48 -10 -85 -4 -37 -8 -75 -10 -83 -2 -8 -7 -55
-11 -105 -3 -49 -8 -101 -10 -115 -26 -219 -26 -1011 1 -1295 2 -22 6 -67 9
-100 11 -120 45 -396 61 -494 2 -13 7 -43 10 -65 4 -23 8 -48 9 -56 2 -8 6
-33 10 -55 60 -329 146 -714 207 -930 253 -898 607 -1679 1090 -2400 166 -249
425 -589 580 -760 15 -16 37 -41 49 -55 106 -123 343 -365 500 -510 56 -52
110 -102 119 -111 74 -72 384 -321 551 -445 232 -171 497 -341 805 -517 82
-47 574 -296 625 -316 19 -8 55 -23 80 -33 25 -11 59 -26 75 -33 17 -7 50 -22
75 -33 188 -83 842 -310 970 -337 8 -1 35 -9 60 -16 25 -7 50 -13 55 -14 12
-3 125 -32 175 -46 41 -11 204 -49 240 -55 14 -3 63 -14 110 -24 85 -19 271
-55 344 -66 21 -3 48 -8 60 -10 36 -7 139 -23 191 -29 28 -4 57 -8 65 -10 8
-3 42 -7 75 -10 33 -3 71 -8 85 -10 52 -8 161 -20 270 -30 36 -3 81 -8 100
-10 19 -2 80 -6 135 -10 55 -3 119 -8 143 -10 230 -24 1070 -24 1402 0 30 2
96 6 145 9 50 4 110 8 135 10 25 2 83 7 130 11 47 3 96 8 110 10 14 2 54 7 90
10 36 3 76 8 90 10 14 2 52 6 85 10 33 3 69 8 80 9 11 2 49 8 85 12 36 4 68 9
73 10 4 1 15 2 26 3 18 1 19 51 17 1998 -1 1766 -3 1996 -16 1998 -8 1 -73 6
-145 9 -71 4 -155 9 -185 11 -76 6 -209 14 -310 20 -47 3 -119 7 -160 10 -162
10 -261 16 -326 20 -217 12 -272 16 -304 20 -19 2 -69 7 -110 10 -41 4 -86 8
-100 10 -14 2 -50 6 -80 10 -53 6 -70 9 -135 19 -101 15 -122 19 -140 22 -11
2 -47 9 -80 14 -33 6 -91 17 -130 26 -38 8 -79 16 -90 18 -216 41 -632 174
-895 286 -204 87 -526 258 -652 346 -26 19 -52 34 -57 34 -5 0 -11 4 -13 8 -1
5 -32 28 -67 52 -184 124 -529 437 -672 609 -24 29 -49 58 -54 65 -40 42 -183
241 -250 344 -108 168 -245 437 -318 622 -56 144 -59 153 -63 165 -2 6 -24 74
-48 152 -25 77 -47 153 -50 167 -3 14 -7 29 -10 34 -3 5 -7 20 -10 34 -2 14
-16 79 -30 144 -35 163 -63 345 -81 519 -26 251 -26 705 0 900 2 17 7 53 10
80 22 179 58 365 106 548 16 62 32 121 34 133 12 53 121 362 166 469 95 227
245 514 372 709 111 172 249 357 386 516 72 84 328 341 409 410 l52 45 -59 80
c-33 44 -69 94 -81 110 -12 17 -53 73 -91 125 -39 52 -77 104 -85 115 -8 11
-130 178 -270 370 -141 193 -294 402 -340 465 -235 322 -297 407 -314 430 -21
27 -16 21 -223 305 -80 110 -150 205 -154 210 -5 6 -112 152 -237 325 -126
173 -239 327 -250 341 -12 15 -30 39 -41 55 -24 33 -70 97 -147 201 -31 43
-122 168 -203 278 -80 110 -149 201 -153 202 -4 2 -50 -29 -102 -68z"/>
<path d="M10334 16774 c-5 -1 -146 -5 -314 -8 -168 -3 -325 -7 -350 -10 -25
-3 -72 -8 -105 -11 -33 -3 -71 -8 -85 -10 -14 -2 -45 -7 -70 -10 -57 -8 -90
-13 -165 -26 -33 -6 -71 -13 -85 -15 -14 -3 -63 -14 -110 -25 -47 -11 -95 -22
-107 -25 -97 -19 -478 -144 -588 -193 -11 -5 -74 -33 -140 -62 -898 -396
-1603 -1100 -1951 -1949 -52 -129 -123 -338 -140 -415 -1 -5 -7 -30 -14 -55
-13 -47 -17 -66 -25 -115 -3 -16 -8 -37 -10 -45 -10 -34 -36 -199 -41 -255 -3
-33 -7 -66 -9 -73 -19 -57 -25 -620 -7 -631 6 -3 1058 -6 2340 -6 l2329 0 74
71 c68 64 112 105 339 318 95 89 196 184 375 352 77 72 158 148 180 169 22 20
94 88 160 150 66 62 136 128 156 146 20 19 94 88 164 154 70 66 136 127 147
137 11 9 85 79 166 156 81 76 176 165 211 198 35 32 76 70 90 84 15 14 61 57
102 95 41 39 113 106 159 150 94 88 322 302 385 360 64 60 170 160 323 304 78
73 151 141 162 151 10 9 83 77 160 150 77 73 149 141 160 150 11 9 79 73 151
141 203 191 217 204 334 314 61 56 130 121 155 144 l45 41 -30 2 c-46 2 -4511
4 -4521 2z"/>
<path d="M16218 16676 c-29 -26 -75 -69 -103 -93 -67 -61 -224 -204 -305 -278
-104 -95 -181 -164 -270 -245 -46 -41 -95 -85 -108 -97 -14 -13 -63 -58 -110
-100 -48 -43 -93 -85 -102 -93 -9 -8 -65 -60 -125 -114 -119 -107 -154 -139
-256 -231 -36 -33 -105 -96 -154 -140 -48 -44 -100 -91 -115 -105 -14 -14 -67
-61 -116 -105 -49 -44 -91 -82 -94 -85 -3 -3 -50 -46 -105 -95 -54 -50 -111
-101 -125 -115 -14 -14 -64 -59 -110 -100 -46 -41 -88 -80 -94 -85 -6 -6 -53
-48 -105 -95 -52 -47 -107 -96 -121 -110 -39 -36 -199 -182 -224 -203 -12 -10
-42 -37 -67 -60 -69 -64 -236 -215 -304 -277 -33 -30 -103 -93 -154 -140 -51
-47 -102 -92 -113 -102 -11 -9 -60 -54 -110 -100 -50 -46 -101 -92 -114 -103
-12 -11 -57 -52 -100 -92 -44 -39 -88 -80 -100 -90 -18 -15 -121 -109 -224
-203 -15 -14 -68 -61 -116 -106 -49 -44 -165 -150 -259 -235 -93 -84 -175
-158 -181 -164 -30 -28 -173 -157 -193 -174 l-24 -21 6 -3297 c7 -3626 8
-3753 17 -3753 4 0 29 20 56 44 27 24 155 137 284 251 129 114 269 238 310
275 41 37 93 82 115 101 22 19 45 39 51 44 12 11 112 101 263 235 53 47 101
89 107 95 6 5 37 33 69 60 32 28 63 55 69 60 22 20 196 175 222 197 15 13 32
28 38 33 6 6 56 50 111 99 55 49 116 103 135 120 19 17 71 63 114 101 44 39
87 77 96 85 9 8 32 29 51 45 80 70 400 353 469 415 41 37 95 84 120 106 25 21
47 41 50 44 3 3 48 43 100 89 52 46 111 98 130 115 19 17 71 63 115 101 43 39
86 77 95 85 26 24 86 77 215 190 65 58 127 112 135 120 9 8 50 44 91 80 78 69
156 139 175 155 19 17 138 123 160 142 25 21 158 139 190 168 12 11 33 29 45
40 53 46 138 121 207 183 41 36 83 74 95 85 56 48 88 76 172 151 50 44 92 82
95 84 3 2 6 427 6 945 1 518 2 945 3 948 0 3 49 48 108 100 60 52 205 179 323
283 118 104 229 200 245 215 136 119 362 319 375 331 21 19 81 73 145 129 89
78 188 166 199 176 6 6 49 44 96 85 47 41 90 80 96 85 6 6 39 35 74 65 35 30
82 72 104 93 22 20 57 52 79 70 22 17 54 46 71 62 17 17 85 77 151 135 65 58
126 112 135 120 9 8 49 44 90 80 40 36 83 74 95 85 13 11 51 45 86 75 35 30
72 64 84 75 11 11 61 56 110 99 73 64 202 179 259 231 6 6 70 62 141 125 72
63 132 117 135 120 3 3 46 41 95 85 50 43 97 86 106 95 9 8 31 28 50 45 51 44
393 348 482 429 43 38 87 77 96 86 81 70 162 142 200 176 46 41 473 421 605
538 38 34 74 66 80 71 6 6 47 42 91 80 44 39 84 75 90 81 5 6 64 57 130 115
66 57 129 113 140 124 11 11 70 63 130 115 61 52 112 97 115 101 3 3 64 57
135 119 274 238 285 248 285 254 0 1 -136 1 -302 -1 -903 -8 -4509 -2 -5505
10 l-152 2 -53 -49z"/>
<path d="M16155 8532 c-17 -15 -71 -63 -120 -107 -50 -44 -92 -82 -95 -85 -3
-3 -61 -54 -130 -114 -69 -60 -135 -119 -146 -130 -12 -12 -45 -41 -74 -66
-30 -25 -58 -50 -64 -56 -6 -5 -49 -44 -96 -84 -115 -101 -150 -132 -169 -150
-9 -9 -74 -67 -146 -130 -71 -63 -132 -117 -135 -120 -3 -3 -77 -68 -165 -145
-88 -77 -162 -142 -165 -146 -3 -3 -30 -27 -60 -54 -30 -26 -89 -78 -129 -114
-41 -36 -98 -86 -126 -111 -102 -90 -198 -175 -209 -185 -6 -6 -45 -39 -86
-75 -41 -36 -77 -68 -80 -71 -3 -3 -50 -45 -105 -93 -55 -49 -116 -103 -135
-120 -19 -18 -75 -68 -125 -111 -49 -44 -95 -84 -101 -90 -6 -5 -37 -32 -68
-60 -32 -27 -68 -59 -80 -70 -46 -42 -124 -111 -157 -139 -19 -16 -54 -48 -79
-70 -25 -23 -61 -55 -80 -71 -138 -121 -481 -425 -510 -452 -19 -17 -46 -41
-60 -53 -14 -12 -50 -43 -80 -70 -30 -27 -65 -57 -77 -67 -12 -11 -54 -49 -95
-85 -40 -36 -120 -107 -178 -158 -58 -51 -121 -107 -140 -124 -121 -107 -209
-185 -239 -211 -19 -16 -46 -41 -60 -54 -14 -13 -53 -47 -87 -77 l-61 -54 3
-773 c2 -424 4 -1381 4 -2125 l1 -1352 2372 2 2372 3 0 4223 c0 2322 -2 4222
-5 4222 -3 0 -19 -12 -35 -28z"/>
</g>
</svg>
